{
  "asset": {
    "version": "2.0",
    "generator": "ModelConverterX"
  },
  "extensionsUsed": [
    "ASOBO_material_day_night_switch"
  ],
  "scene": 0,
  "scenes": [
    {
      "nodes": [
        0
      ]
    }
  ],
  "nodes": [
    {
      "name": "node0",
      "children": [
        1
      ]
    },
    {
      "name": "node1",
      "mesh": 0
    }
  ],
  "meshes": [
    {
      "primitives": [
        {
          "attributes": {
            "POSITION": 0,
            "NORMAL": 1,
            "TEXCOORD_0": 2
          },
          "indices": 3,
          "mode": 4,
          "material": 0
        }
      ],
      "name": "part000"
    }
  ],
  "accessors": [
    {
      "bufferView": 1,
      "byteOffset": 0,
      "componentType": 5126,
      "count": 3266,
      "type": "VEC3",
      "min": [
        0.19715000689029694,
        185.84519958496094,
        4.3505365793879478E-17
      ],
      "max": [
        0.6922600269317627,
        187.0771484375,
        1.1899800300598145
      ]
    },
    {
      "bufferView": 2,
      "byteOffset": 0,
      "componentType": 5126,
      "count": 3266,
      "type": "VEC3"
    },
    {
      "bufferView": 3,
      "byteOffset": 0,
      "componentType": 5126,
      "count": 3266,
      "type": "VEC2"
    },
    {
      "bufferView": 0,
      "byteOffset": 0,
      "componentType": 5125,
      "count": 16416,
      "type": "SCALAR"
    }
  ],
  "materials": [
    {
      "name": "material00",
      "pbrMetallicRoughness": {
        "baseColorFactor": [
          0.5,
          0.5,
          0.5,
          1.0
        ],
        "roughnessFactor": 1.0,
        "metallicFactor": 1.0,
        "baseColorTexture": {
          "index": 0
        }
      },
      "emissiveFactor": [
        0.0,
        0.0,
        0.0
      ],
      "extensions": {
        "ASOBO_material_day_night_switch": {
          "enabled": true
        }
      }
    }
  ],
  "textures": [
    {
      "source": 0,
      "name": "combinaci贸ndecapa1-texturadifusi贸n"
    }
  ],
  "images": [
    {
      "uri": "combinaci贸ndecapa1-texturadifusi贸n.jpg"
    }
  ],
  "bufferViews": [
    {
      "buffer": 0,
      "byteOffset": 0,
      "byteLength": 65664
    },
    {
      "buffer": 0,
      "byteOffset": 65664,
      "byteLength": 39192,
      "byteStride": 12
    },
    {
      "buffer": 0,
      "byteOffset": 104856,
      "byteLength": 39192,
      "byteStride": 12
    },
    {
      "buffer": 0,
      "byteOffset": 144048,
      "byteLength": 26128,
      "byteStride": 8
    }
  ],
  "buffers": [
    {
      "byteLength": 170176,
      "uri": "OIG-removebg-preview.bin"
    }
  ]
}